<?xml version="1.0" encoding="UTF-8" standalone="no"?>
<svg
   xmlns:dc="http://purl.org/dc/elements/1.1/"
   xmlns:cc="http://creativecommons.org/ns#"
   xmlns:rdf="http://www.w3.org/1999/02/22-rdf-syntax-ns#"
   xmlns:svg="http://www.w3.org/2000/svg"
   xmlns="http://www.w3.org/2000/svg"
   xmlns:sodipodi="http://sodipodi.sourceforge.net/DTD/sodipodi-0.dtd"
   xmlns:inkscape="http://www.inkscape.org/namespaces/inkscape"
   sodipodi:docname="logo.svg"
   inkscape:version="1.0 (4035a4fb49, 2020-05-01)"
   id="svg28"
   version="1.1"
   viewBox="0 0 150 50"
   height="50mm"
   width="150mm">
  <defs
     id="defs22">
    <rect
       id="rect344"
       height="34.424316"
       width="138.44562"
       y="61.365082"
       x="280.25882" />
    <rect
       id="rect322"
       height="37.417732"
       width="120.4851"
       y="62.113438"
       x="287.36819" />
    <rect
       id="rect38"
       height="27.796032"
       width="35.279579"
       y="28.865108"
       x="437.78748" />
    <rect
       id="rect32"
       height="150.20547"
       width="346.38132"
       y="24.054256"
       x="287.04745" />
  </defs>
  <sodipodi:namedview
     fit-margin-bottom="0"
     fit-margin-right="0"
     fit-margin-left="0"
     fit-margin-top="0"
     inkscape:window-maximized="1"
     inkscape:window-y="-11"
     inkscape:window-x="-11"
     inkscape:window-height="1000"
     inkscape:window-width="1920"
     inkscape:guide-bbox="true"
     showguides="true"
     showgrid="false"
     inkscape:document-rotation="0"
     inkscape:current-layer="layer1"
     inkscape:document-units="mm"
     inkscape:cy="164.53585"
     inkscape:cx="130.41745"
     inkscape:zoom="1"
     inkscape:pageshadow="2"
     inkscape:pageopacity="0.0"
     borderopacity="1.0"
     bordercolor="#666666"
     pagecolor="#ffffff"
     id="base">
    <sodipodi:guide
       id="guide552"
       orientation="1,0"
       position="11.22891,16.685779" />
    <sodipodi:guide
       id="guide554"
       orientation="1,0"
       position="143.87477,9.7634993" />
    <sodipodi:guide
       id="guide1385"
       orientation="0,-1"
       position="53.69802,38.949339" />
    <sodipodi:guide
       id="guide1387"
       orientation="0,-1"
       position="81.480699,24.637049" />
    <sodipodi:guide
       id="guide1389"
       orientation="0,-1"
       position="79.703359,16.405149" />
    <sodipodi:guide
       id="guide1391"
       orientation="0,-1"
       position="81.012969,7.5184393" />
    <sodipodi:guide
       id="guide1393"
       orientation="1,0"
       position="36.48588,3.0283094" />
    <sodipodi:guide
       id="guide1395"
       orientation="1,0"
       position="122.17247,-15.49347" />
    <sodipodi:guide
       id="guide1479"
       orientation="1,0"
       position="78.273949,24.878199" />
    <sodipodi:guide
       id="guide1481"
       orientation="1,0"
       position="89.431959,-10.254981" />
    <sodipodi:guide
       id="guide1483"
       orientation="0,-1"
       position="88.058069,35.687709" />
  </sodipodi:namedview>
  <metadata
     id="metadata25">
    <rdf:RDF>
      <cc:Work
         rdf:about="">
        <dc:format>image/svg+xml</dc:format>
        <dc:type
           rdf:resource="http://purl.org/dc/dcmitype/StillImage" />
        <dc:title></dc:title>
      </cc:Work>
    </rdf:RDF>
  </metadata>
  <g
     transform="translate(-504.01329,-19.81896)"
     id="layer1"
     inkscape:groupmode="layer"
     inkscape:label="Calque 1">
    <g
       transform="matrix(0.96465578,0,0,0.9340169,17.813956,1.3077164)"
       id="g1647">
      <path
         id="rect556"
         style="fill:#9717ad;fill-opacity:0.921569;stroke-width:0.214524"
         d="M 504.01329,19.904374 H 659.50917 V 73.300597 H 504.01329 Z" />
      <g
         aria-label="Laurent HE  
"
         transform="matrix(1.0025567,0,0,1,226.58213,2.7288354)"
         id="text30"
         style="font-style:normal;font-weight:normal;font-size:19.7556px;line-height:1.25;font-family:sans-serif;letter-spacing:1.5875px;word-spacing:1.85208px;white-space:pre;shape-inside:url(#rect32);fill:#000000;fill-opacity:1;stroke:none">
        <path
           d="m 288.68659,28.383011 h 3.20041 v 11.221181 h 6.93421 v 2.607739 h -10.13462 z"
           style="font-style:normal;font-variant:normal;font-weight:bold;font-stretch:normal;font-size:19.7556px;font-family:Montserrat;-inkscape-font-specification:'Montserrat Bold';fill:#ffffff"
           id="path1439" />
        <path
           d="m 306.38231,31.425374 q 2.46945,0 3.79308,1.185336 1.32362,1.16558 1.32362,3.536252 v 6.064969 h -2.88432 v -1.323625 q -0.86924,1.48167 -3.23991,1.48167 -1.22485,0 -2.13361,-0.414867 -0.889,-0.414868 -1.36314,-1.145825 -0.47413,-0.730957 -0.47413,-1.659471 0,-1.48167 1.10631,-2.33116 1.12607,-0.849491 3.45723,-0.849491 h 2.4497 q 0,-1.007536 -0.61243,-1.540937 -0.61242,-0.553157 -1.83727,-0.553157 -0.84949,0 -1.67922,0.276579 -0.80998,0.256822 -1.38289,0.711201 l -1.10632,-2.15336 q 0.86925,-0.612424 2.07434,-0.948269 1.22485,-0.335845 2.50896,-0.335845 z m -0.23707,8.870264 q 0.79023,0 1.40265,-0.355601 0.61243,-0.375356 0.86925,-1.086558 v -1.086558 h -2.11385 q -1.89654,0 -1.89654,1.244603 0,0.592668 0.45438,0.948269 0.47413,0.335845 1.28411,0.335845 z"
           style="font-style:normal;font-variant:normal;font-weight:bold;font-stretch:normal;font-size:19.7556px;font-family:Montserrat;-inkscape-font-specification:'Montserrat Bold';fill:#ffffff"
           id="path1441" />
        <path
           d="m 326.58329,31.583419 v 10.628512 h -2.92383 v -1.264358 q -0.61242,0.691446 -1.46191,1.066802 -0.84949,0.355601 -1.83727,0.355601 -2.0941,0 -3.31894,-1.205091 -1.22485,-1.205092 -1.22485,-3.575764 v -6.005702 h 3.08187 v 5.551323 q 0,2.568228 2.15336,2.568228 1.10632,0 1.77801,-0.711201 0.67169,-0.730958 0.67169,-2.153361 v -5.254989 z"
           style="font-style:normal;font-variant:normal;font-weight:bold;font-stretch:normal;font-size:19.7556px;font-family:Montserrat;-inkscape-font-specification:'Montserrat Bold';fill:#ffffff"
           id="path1443" />
        <path
           d="m 333.98882,32.986066 q 0.55315,-0.770468 1.48167,-1.16558 0.94827,-0.395112 2.17311,-0.395112 v 2.844806 q -0.51364,-0.03951 -0.69144,-0.03951 -1.32363,0 -2.07434,0.750713 -0.75071,0.730957 -0.75071,2.212627 v 5.017922 h -3.08188 V 31.583419 h 2.94359 z"
           style="font-style:normal;font-variant:normal;font-weight:bold;font-stretch:normal;font-size:19.7556px;font-family:Montserrat;-inkscape-font-specification:'Montserrat Bold';fill:#ffffff"
           id="path1445" />
        <path
           d="m 351.37832,36.937186 q 0,0.05927 -0.0593,0.829735 h -8.04053 q 0.21731,0.98778 1.02729,1.560693 0.80998,0.572912 2.01507,0.572912 0.82974,0 1.46191,-0.237067 0.65194,-0.256823 1.2051,-0.790224 l 1.63971,1.778004 q -1.50142,1.718737 -4.38574,1.718737 -1.79776,0 -3.18065,-0.691446 -1.3829,-0.711201 -2.13361,-1.955804 -0.75071,-1.244603 -0.75071,-2.825051 0,-1.560692 0.73096,-2.805295 0.75071,-1.264359 2.03482,-1.955805 1.30387,-0.711201 2.90408,-0.711201 1.56069,0 2.82505,0.67169 1.26436,0.671691 1.97556,1.936049 0.73095,1.244603 0.73095,2.904073 z m -5.51181,-3.180651 q -1.04705,0 -1.75825,0.592668 -0.7112,0.592668 -0.86924,1.619959 h 5.23523 q -0.15804,-1.007536 -0.86925,-1.600204 -0.7112,-0.612423 -1.73849,-0.612423 z"
           style="font-style:normal;font-variant:normal;font-weight:bold;font-stretch:normal;font-size:19.7556px;font-family:Montserrat;-inkscape-font-specification:'Montserrat Bold';fill:#ffffff"
           id="path1447" />
        <path
           d="m 361.47771,31.425374 q 1.97556,0 3.18065,1.185336 1.22485,1.185336 1.22485,3.516497 v 6.084724 h -3.08188 v -5.61059 q 0,-1.264358 -0.55315,-1.876782 -0.55316,-0.632179 -1.60021,-0.632179 -1.16558,0 -1.85702,0.730957 -0.69145,0.711202 -0.69145,2.133605 v 5.254989 h -3.08187 V 31.583419 h 2.94358 v 1.244602 q 0.61242,-0.67169 1.52118,-1.027291 0.90876,-0.375356 1.99532,-0.375356 z"
           style="font-style:normal;font-variant:normal;font-weight:bold;font-stretch:normal;font-size:19.7556px;font-family:Montserrat;-inkscape-font-specification:'Montserrat Bold';fill:#ffffff"
           id="path1449" />
        <path
           d="m 377.11947,41.698286 q -0.45438,0.335845 -1.12607,0.513645 -0.65193,0.158045 -1.38289,0.158045 -1.89654,0 -2.94359,-0.968024 -1.02729,-0.968025 -1.02729,-2.844807 v -4.365987 h -1.63971 v -2.370672 h 1.63971 v -2.587984 h 3.08188 v 2.587984 h 2.64725 v 2.370672 h -2.64725 v 4.326476 q 0,0.671691 0.33584,1.047047 0.3556,0.355601 0.98778,0.355601 0.73096,0 1.2446,-0.395112 z"
           style="font-style:normal;font-variant:normal;font-weight:bold;font-stretch:normal;font-size:19.7556px;font-family:Montserrat;-inkscape-font-specification:'Montserrat Bold';fill:#ffffff"
           id="path1451" />
        <path
           d="m 404.64535,28.383011 v 13.82892 h -3.20041 v -5.669857 h -6.28228 v 5.669857 h -3.2004 v -13.82892 h 3.2004 v 5.452546 h 6.28228 v -5.452546 z"
           style="font-style:normal;font-variant:normal;font-weight:bold;font-stretch:normal;font-size:19.7556px;font-family:Montserrat;-inkscape-font-specification:'Montserrat Bold';fill:#ffffff"
           id="path1453" />
        <path
           d="m 420.23154,39.643703 v 2.568228 h -10.70753 v -13.82892 h 10.45071 v 2.568228 h -7.27006 v 3.002852 h 6.42057 v 2.489205 h -6.42057 v 3.200407 z"
           style="font-style:normal;font-variant:normal;font-weight:bold;font-stretch:normal;font-size:19.7556px;font-family:Montserrat;-inkscape-font-specification:'Montserrat Bold';fill:#ffffff"
           id="path1455" />
      </g>
      <text
         xml:space="preserve"
         id="text36"
         style="font-style:normal;font-weight:normal;font-size:10.5833px;line-height:1.25;font-family:sans-serif;white-space:pre;shape-inside:url(#rect38);fill:#000000;fill-opacity:1;stroke:none;" />
      <text
         xml:space="preserve"
         style="font-style:normal;font-weight:normal;font-size:10.5833px;line-height:1.25;font-family:sans-serif;fill:#000000;fill-opacity:1;stroke:none;stroke-width:0.264583"
         x="436.03333"
         y="38.893749"
         id="text50"><tspan
           sodipodi:role="line"
           id="tspan48"
           x="436.03333"
           y="38.893749"
           style="stroke-width:0.264583"></tspan><tspan
           sodipodi:role="line"
           x="436.03333"
           y="52.122875"
           style="stroke-width:0.264583"
           id="tspan52" /></text>
      <g
         aria-label="'llo world !"
         transform="matrix(1.0025567,0,0,1,251.90065,-11.222096)"
         id="text320"
         style="font-style:normal;font-weight:normal;font-size:12.7px;line-height:1.25;font-family:sans-serif;letter-spacing:2.11667px;white-space:pre;shape-inside:url(#rect322);fill:#000000;fill-opacity:1;stroke:none">
        <path
           d="m 288.79154,65.447574 h 1.81752 l -0.80152,3.296359 h -1.524 z"
           style="font-style:italic;font-variant:normal;font-weight:800;font-stretch:normal;font-size:11.2889px;font-family:Montserrat;-inkscape-font-specification:'Montserrat Ultra-Bold Italic';fill:#f98c00;fill-opacity:1"
           id="path1458" />
        <path
           d="m 293.96962,64.97344 h 2.14489 l -1.67076,8.376365 h -2.14489 z"
           style="font-style:italic;font-variant:normal;font-weight:800;font-stretch:normal;font-size:11.2889px;font-family:Montserrat;-inkscape-font-specification:'Montserrat Ultra-Bold Italic';fill:#f98c00;fill-opacity:1"
           id="path1460" />
        <path
           d="m 299.61407,64.97344 h 2.14489 l -1.67075,8.376365 h -2.1449 z"
           style="font-style:italic;font-variant:normal;font-weight:800;font-stretch:normal;font-size:11.2889px;font-family:Montserrat;-inkscape-font-specification:'Montserrat Ultra-Bold Italic';fill:#f98c00;fill-opacity:1"
           id="path1462" />
        <path
           d="m 306.98572,73.451405 q -0.97084,0 -1.69333,-0.338667 -0.72249,-0.349956 -1.1176,-0.982135 -0.39511,-0.632178 -0.39511,-1.467557 0,-1.004712 0.48542,-1.806224 0.48542,-0.801512 1.34338,-1.264357 0.85796,-0.462845 1.9304,-0.462845 0.97085,0 1.69334,0.349956 0.72249,0.338667 1.1176,0.970846 0.39511,0.620889 0.39511,1.456268 0,1.004712 -0.48542,1.817513 -0.48543,0.801512 -1.34338,1.264357 -0.84667,0.462845 -1.93041,0.462845 z m 0.12418,-1.727202 q 0.64347,0 1.04987,-0.474134 0.4064,-0.474134 0.4064,-1.23049 0,-0.541867 -0.3048,-0.857957 -0.3048,-0.316089 -0.84667,-0.316089 -0.64346,0 -1.04986,0.474134 -0.40641,0.474134 -0.40641,1.241779 0,0.541867 0.3048,0.857957 0.30481,0.3048 0.84667,0.3048 z"
           style="font-style:italic;font-variant:normal;font-weight:800;font-stretch:normal;font-size:11.2889px;font-family:Montserrat;-inkscape-font-specification:'Montserrat Ultra-Bold Italic';fill:#f98c00;fill-opacity:1"
           id="path1464" />
        <path
           d="m 330.04983,67.231221 -3.34151,6.118584 H 324.586 l -0.57573,-3.330226 -1.79493,3.330226 h -2.09974 l -1.03858,-6.118584 h 1.96427 l 0.55316,3.680181 2.02071,-3.680181 h 1.84009 l 0.56444,3.680181 2.02072,-3.680181 z"
           style="font-style:italic;font-variant:normal;font-weight:800;font-stretch:normal;font-size:11.2889px;font-family:Montserrat;-inkscape-font-specification:'Montserrat Ultra-Bold Italic';fill:#f98c00;fill-opacity:1"
           id="path1466" />
        <path
           d="m 334.78905,73.451405 q -0.97084,0 -1.69333,-0.338667 -0.72249,-0.349956 -1.1176,-0.982135 -0.39511,-0.632178 -0.39511,-1.467557 0,-1.004712 0.48542,-1.806224 0.48542,-0.801512 1.34338,-1.264357 0.85795,-0.462845 1.9304,-0.462845 0.97085,0 1.69334,0.349956 0.72248,0.338667 1.1176,0.970846 0.39511,0.620889 0.39511,1.456268 0,1.004712 -0.48542,1.817513 -0.48543,0.801512 -1.34338,1.264357 -0.84667,0.462845 -1.93041,0.462845 z m 0.12418,-1.727202 q 0.64347,0 1.04987,-0.474134 0.4064,-0.474134 0.4064,-1.23049 0,-0.541867 -0.3048,-0.857957 -0.3048,-0.316089 -0.84667,-0.316089 -0.64347,0 -1.04987,0.474134 -0.4064,0.474134 -0.4064,1.241779 0,0.541867 0.3048,0.857957 0.3048,0.3048 0.84667,0.3048 z"
           style="font-style:italic;font-variant:normal;font-weight:800;font-stretch:normal;font-size:11.2889px;font-family:Montserrat;-inkscape-font-specification:'Montserrat Ultra-Bold Italic';fill:#f98c00;fill-opacity:1"
           id="path1468" />
        <path
           d="m 344.12004,67.908555 q 0.76764,-0.778935 2.21262,-0.778935 l -0.37253,1.930402 q -0.28223,-0.03387 -0.48543,-0.03387 -0.72249,0 -1.16275,0.349956 -0.42898,0.338667 -0.57574,1.083734 l -0.58702,2.889959 h -2.14489 l 1.2192,-6.118584 h 2.032 z"
           style="font-style:italic;font-variant:normal;font-weight:800;font-stretch:normal;font-size:11.2889px;font-family:Montserrat;-inkscape-font-specification:'Montserrat Ultra-Bold Italic';fill:#f98c00;fill-opacity:1"
           id="path1470" />
        <path
           d="m 349.77472,64.97344 h 2.14489 l -1.67076,8.376365 h -2.14489 z"
           style="font-style:italic;font-variant:normal;font-weight:800;font-stretch:normal;font-size:11.2889px;font-family:Montserrat;-inkscape-font-specification:'Montserrat Ultra-Bold Italic';fill:#f98c00;fill-opacity:1"
           id="path1472" />
        <path
           d="m 361.92157,64.97344 -1.67075,8.376365 h -2.03201 l 0.12418,-0.598312 q -0.73378,0.699912 -1.77235,0.699912 -0.67734,0 -1.27565,-0.327378 -0.58702,-0.338668 -0.94827,-0.970846 -0.36124,-0.632178 -0.36124,-1.490135 0,-0.993423 0.44026,-1.794935 0.45156,-0.812801 1.21921,-1.275646 0.76764,-0.462845 1.67075,-0.462845 1.30952,0 1.86267,0.812801 l 0.59831,-2.968981 z m -4.60587,6.750763 q 0.64347,0 1.04987,-0.474134 0.4064,-0.474134 0.4064,-1.23049 0,-0.541867 -0.3048,-0.857957 -0.3048,-0.316089 -0.84667,-0.316089 -0.64346,0 -1.04986,0.474134 -0.40641,0.474134 -0.40641,1.241779 0,0.541867 0.30481,0.857957 0.3048,0.3048 0.84666,0.3048 z"
           style="font-style:italic;font-variant:normal;font-weight:800;font-stretch:normal;font-size:11.2889px;font-family:Montserrat;-inkscape-font-specification:'Montserrat Ultra-Bold Italic';fill:#f98c00;fill-opacity:1"
           id="path1474" />
        <path
           d="m 370.44788,65.447574 h 2.56258 l -1.43369,5.023561 h -1.70463 z m -0.14676,8.003831 q -0.53058,0 -0.88053,-0.31609 -0.33867,-0.316089 -0.33867,-0.778934 0,-0.541867 0.38382,-0.891823 0.38382,-0.361245 0.95956,-0.361245 0.54187,0 0.88053,0.304801 0.33867,0.3048 0.33867,0.767645 0,0.530578 -0.39511,0.903112 -0.38382,0.372534 -0.94827,0.372534 z"
           style="font-style:italic;font-variant:normal;font-weight:800;font-stretch:normal;font-size:11.2889px;font-family:Montserrat;-inkscape-font-specification:'Montserrat Ultra-Bold Italic';fill:#f98c00;fill-opacity:1"
           id="path1476" />
      </g>
      <text
         xml:space="preserve"
         id="text342"
         style="font-style:normal;font-weight:normal;font-size:10.5833px;line-height:1.25;font-family:sans-serif;white-space:pre;shape-inside:url(#rect344);fill:#000000;fill-opacity:1;stroke:none;" />
    </g>
  </g>
</svg>
