<?xml version="1.0" encoding="UTF-8" standalone="no"?>
<svg id="svg28" xmlns:rdf="http://www.w3.org/1999/02/22-rdf-syntax-ns#" xmlns="http://www.w3.org/2000/svg" viewBox="0 0 150 50" height="50mm" width="150mm" version="1.1" xmlns:cc="http://creativecommons.org/ns#" xmlns:dc="http://purl.org/dc/elements/1.1/">
 <metadata id="metadata25">
  <rdf:RDF>
   <cc:Work rdf:about="">
    <dc:format>image/svg+xml</dc:format>
    <dc:type rdf:resource="http://purl.org/dc/dcmitype/StillImage"/>
    <dc:title/>
   </cc:Work>
  </rdf:RDF>
 </metadata>
 <g id="layer1" transform="translate(-504.01 -19.819)">
  <g id="g1647" transform="matrix(.96466 0 0 .93402 17.814 1.3077)">
   <path id="rect556" d="m504.01 19.904h155.5v53.397h-155.5z" fill-opacity=".92157" stroke-width=".21452" fill="#9717ad"/>
   <g id="text30" aria-label="Laurent HE   " style="shape-inside:url(#rect32);white-space:pre" transform="matrix(1.0026 0 0 1 226.58 2.7288)" fill="#fff">
    <path id="path1439" d="m288.69 28.383h3.2004v11.221h6.9342v2.6077h-10.135z"/>
    <path id="path1441" d="m306.38 31.425q2.4694 0 3.7931 1.1853 1.3236 1.1656 1.3236 3.5363v6.065h-2.8843v-1.3236q-0.86924 1.4817-3.2399 1.4817-1.2248 0-2.1336-0.41487-0.889-0.41487-1.3631-1.1458-0.47413-0.73096-0.47413-1.6595 0-1.4817 1.1063-2.3312 1.1261-0.84949 3.4572-0.84949h2.4497q0-1.0075-0.61243-1.5409-0.61242-0.55316-1.8373-0.55316-0.84949 0-1.6792 0.27658-0.80998 0.25682-1.3829 0.7112l-1.1063-2.1534q0.86925-0.61242 2.0743-0.94827 1.2248-0.33584 2.509-0.33584zm-0.23707 8.8703q0.79023 0 1.4026-0.3556 0.61243-0.37536 0.86925-1.0866v-1.0866h-2.1138q-1.8965 0-1.8965 1.2446 0 0.59267 0.45438 0.94827 0.47413 0.33584 1.2841 0.33584z"/>
    <path id="path1443" d="m326.58 31.583v10.629h-2.9238v-1.2644q-0.61242 0.69145-1.4619 1.0668-0.84949 0.3556-1.8373 0.3556-2.0941 0-3.3189-1.2051t-1.2248-3.5758v-6.0057h3.0819v5.5513q0 2.5682 2.1534 2.5682 1.1063 0 1.778-0.7112 0.67169-0.73096 0.67169-2.1534v-5.255z"/>
    <path id="path1445" d="m333.99 32.986q0.55315-0.77047 1.4817-1.1656 0.94827-0.39511 2.1731-0.39511v2.8448q-0.51364-0.03951-0.69144-0.03951-1.3236 0-2.0743 0.75071-0.75071 0.73096-0.75071 2.2126v5.0179h-3.0819v-10.629h2.9436z"/>
    <path id="path1447" d="m351.38 36.937q0 0.05927-0.0593 0.82974h-8.0405q0.21731 0.98778 1.0273 1.5607 0.80998 0.57291 2.0151 0.57291 0.82974 0 1.4619-0.23707 0.65194-0.25682 1.2051-0.79022l1.6397 1.778q-1.5014 1.7187-4.3857 1.7187-1.7978 0-3.1806-0.69145-1.3829-0.7112-2.1336-1.9558-0.75071-1.2446-0.75071-2.8251 0-1.5607 0.73096-2.8053 0.75071-1.2644 2.0348-1.9558 1.3039-0.7112 2.9041-0.7112 1.5607 0 2.825 0.67169 1.2644 0.67169 1.9756 1.936 0.73095 1.2446 0.73095 2.9041zm-5.5118-3.1807q-1.047 0-1.7582 0.59267t-0.86924 1.62h5.2352q-0.15804-1.0075-0.86925-1.6002-0.7112-0.61242-1.7385-0.61242z"/>
    <path id="path1449" d="m361.48 31.425q1.9756 0 3.1806 1.1853 1.2248 1.1853 1.2248 3.5165v6.0847h-3.0819v-5.6106q0-1.2644-0.55315-1.8768-0.55316-0.63218-1.6002-0.63218-1.1656 0-1.857 0.73096-0.69145 0.7112-0.69145 2.1336v5.255h-3.0819v-10.629h2.9436v1.2446q0.61242-0.67169 1.5212-1.0273 0.90876-0.37536 1.9953-0.37536z"/>
    <path id="path1451" d="m377.12 41.698q-0.45438 0.33584-1.1261 0.51364-0.65193 0.15804-1.3829 0.15804-1.8965 0-2.9436-0.96802-1.0273-0.96802-1.0273-2.8448v-4.366h-1.6397v-2.3707h1.6397v-2.588h3.0819v2.588h2.6472v2.3707h-2.6472v4.3265q0 0.67169 0.33584 1.047 0.3556 0.3556 0.98778 0.3556 0.73096 0 1.2446-0.39511z"/>
    <path id="path1453" d="m404.65 28.383v13.829h-3.2004v-5.6699h-6.2823v5.6699h-3.2004v-13.829h3.2004v5.4525h6.2823v-5.4525z"/>
    <path id="path1455" d="m420.23 39.644v2.5682h-10.708v-13.829h10.451v2.5682h-7.2701v3.0029h6.4206v2.4892h-6.4206v3.2004z"/>
   </g>
   <text id="text36" style="shape-inside:url(#rect38);white-space:pre" xml:space="preserve" font-size="10.583px" line-height="1.25" font-family="sans-serif" fill="#000000"/>
   <text id="text50" stroke-width=".26458" xml:space="preserve" font-size="10.583px" line-height="1.25" y="38.893749" x="436.03333" font-family="sans-serif" fill="#000000"><tspan id="tspan48" y="38.893749" x="436.03333"/><tspan id="tspan52" y="52.122875" x="436.03333"/></text>
   <g id="text320" aria-label="&apos;llo world !" style="shape-inside:url(#rect322);white-space:pre" transform="matrix(1.0026 0 0 1 251.9 -11.222)" fill="#f98c00">
    <path id="path1458" d="m288.79 65.448h1.8175l-0.80152 3.2964h-1.524z"/>
    <path id="path1460" d="m293.97 64.973h2.1449l-1.6708 8.3764h-2.1449z"/>
    <path id="path1462" d="m299.61 64.973h2.1449l-1.6708 8.3764h-2.1449z"/>
    <path id="path1464" d="m306.99 73.451q-0.97084 0-1.6933-0.33867-0.72249-0.34996-1.1176-0.98214t-0.39511-1.4676q0-1.0047 0.48542-1.8062 0.48542-0.80151 1.3434-1.2644 0.85796-0.46284 1.9304-0.46284 0.97085 0 1.6933 0.34996 0.72249 0.33867 1.1176 0.97085 0.39511 0.62089 0.39511 1.4563 0 1.0047-0.48542 1.8175-0.48543 0.80151-1.3434 1.2644-0.84667 0.46284-1.9304 0.46284zm0.12418-1.7272q0.64347 0 1.0499-0.47413 0.4064-0.47413 0.4064-1.2305 0-0.54187-0.3048-0.85796t-0.84667-0.31609q-0.64346 0-1.0499 0.47413-0.40641 0.47413-0.40641 1.2418 0 0.54187 0.3048 0.85796 0.30481 0.3048 0.84667 0.3048z"/>
    <path id="path1466" d="m330.05 67.231-3.3415 6.1186h-2.12l-0.57573-3.3302-1.7949 3.3302h-2.0997l-1.0386-6.1186h1.9643l0.55316 3.6802 2.0207-3.6802h1.8401l0.56444 3.6802 2.0207-3.6802z"/>
    <path id="path1468" d="m334.79 73.451q-0.97084 0-1.6933-0.33867-0.72249-0.34996-1.1176-0.98214t-0.39511-1.4676q0-1.0047 0.48542-1.8062 0.48542-0.80151 1.3434-1.2644 0.85795-0.46284 1.9304-0.46284 0.97085 0 1.6933 0.34996 0.72248 0.33867 1.1176 0.97085 0.39511 0.62089 0.39511 1.4563 0 1.0047-0.48542 1.8175-0.48543 0.80151-1.3434 1.2644-0.84667 0.46284-1.9304 0.46284zm0.12418-1.7272q0.64347 0 1.0499-0.47413 0.4064-0.47413 0.4064-1.2305 0-0.54187-0.3048-0.85796t-0.84667-0.31609q-0.64347 0-1.0499 0.47413-0.4064 0.47413-0.4064 1.2418 0 0.54187 0.3048 0.85796 0.3048 0.3048 0.84667 0.3048z"/>
    <path id="path1470" d="m344.12 67.909q0.76764-0.77894 2.2126-0.77894l-0.37253 1.9304q-0.28223-0.03387-0.48543-0.03387-0.72249 0-1.1628 0.34996-0.42898 0.33867-0.57574 1.0837l-0.58702 2.89h-2.1449l1.2192-6.1186h2.032z"/>
    <path id="path1472" d="m349.77 64.973h2.1449l-1.6708 8.3764h-2.1449z"/>
    <path id="path1474" d="m361.92 64.973-1.6708 8.3764h-2.032l0.12418-0.59831q-0.73378 0.69991-1.7724 0.69991-0.67734 0-1.2756-0.32738-0.58702-0.33867-0.94827-0.97085-0.36124-0.63218-0.36124-1.4901 0-0.99342 0.44026-1.7949 0.45156-0.8128 1.2192-1.2756 0.76764-0.46284 1.6708-0.46284 1.3095 0 1.8627 0.8128l0.59831-2.969zm-4.6059 6.7508q0.64347 0 1.0499-0.47413 0.4064-0.47413 0.4064-1.2305 0-0.54187-0.3048-0.85796t-0.84667-0.31609q-0.64346 0-1.0499 0.47413-0.40641 0.47413-0.40641 1.2418 0 0.54187 0.30481 0.85796 0.3048 0.3048 0.84666 0.3048z"/>
    <path id="path1476" d="m370.45 65.448h2.5626l-1.4337 5.0236h-1.7046zm-0.14676 8.0038q-0.53058 0-0.88053-0.31609-0.33867-0.31609-0.33867-0.77893 0-0.54187 0.38382-0.89182 0.38382-0.36124 0.95956-0.36124 0.54187 0 0.88053 0.3048 0.33867 0.3048 0.33867 0.76764 0 0.53058-0.39511 0.90311-0.38382 0.37253-0.94827 0.37253z"/>
   </g>
   <text id="text342" style="shape-inside:url(#rect344);white-space:pre" xml:space="preserve" font-size="10.583px" line-height="1.25" font-family="sans-serif" fill="#000000"/>
  </g>
 </g>
</svg>
